# xmcd
#
# Track frame offsets:
#	150
#	29874
#	59165
#	77091
#	114192
#	151583
#	187788
#	220228
#	241994
#	266401
#	299227
#	330687
#
# Disc length: 4677 seconds
#
# Revision: 3
# Processed by: cddbd v1.5.1PL2 Copyright (c) Steve Scherf et al.
# Submitted via: EasyCDDAExtractor 9.0.0.1
#
DISCID=ae12430c
DTITLE=Paul Oakenfold - Tranceport
DYEAR=2003
DGENRE=Trance
TTITLE0=The Dream Travel -Time (Original Mix)
TTITLE1=Three Drives On A Vinyl-Greece 2003 (Original Mix)
TTITLE2=Tilt v. Paul Van Dyk-Rendezvous (Qadraphonic Mix)
TTITLE3=Gus Gus- Purple (Sasha v. The Light)
TTITLE4=Ascension-Someone (Slacker and Original Vocal Mix)
TTITLE5=Agnelli+Nelson-El Nino (Matt Darey 12^ Mix)
TTITLE6=Energy 52 - Cafe Del Mar (Three N One Remix)
TTITLE7=Binary Finary - 2003 (Original Mix/PVD Mix)
TTITLE8=Paul Van Dyk - Words (For Love) (Original Mix)
TTITLE9=Lost Tribe - Gamemaster (Original Mix)
TTITLE10=Transa - Enervate (Original Mix)
TTITLE11=Track12
EXTD=
EXTT0=
EXTT1=
EXTT2=
EXTT3=
EXTT4=
EXTT5=
EXTT6=
EXTT7=
EXTT8=
EXTT9=
EXTT10=
EXTT11=
PLAYORDER=
